.
 
http://www.scenetime.com    -  Hottest private tracker on the net. !!!

New release on http://www.scenetime.com

        Seed back for speed


...................................NFO:.................................................
***********************************************************************************************
                                        General
***********************************************************************************************

Complete name                    : Immortals 2011 R5 XVID AC3 - SCR0N
Format                           : AVI
Format/Info                      : Audio Video Interleave
File size                        : 1.36 GiB
Duration                         : 1h 45mn
Overall bit rate                 : 1 844 Kbps


***********************************************************************************************
                                         Video
***********************************************************************************************

ID                               : 0
Format                           : MPEG-4 Visual
Format profile                   : Advanced Simple@L5
Format settings, BVOP            : 2
Format settings, QPel            : No
Format settings, GMC             : No warppoints
Format settings, Matrix          : Default (H.263)
Codec ID                         : XVID
Codec ID/Hint                    : XviD
Duration                         : 1h 45mn
Bit rate                         : 1 580 Kbps
Width                            : 720 pixels
Height                           : 384 pixels
Display aspect ratio             : 1.875
Frame rate                       : 25.000 fps
Color space                      : YUV
Chroma subsampling               : 4:2:0
Bit depth                        : 8 bits
Scan type                        : Progressive
Compression mode                 : Lossy
Bits/(Pixel*Frame)               : 0.229
Stream size                      : 1.17 GiB (86%)


***********************************************************************************************
                                         Audio
***********************************************************************************************

ID                               : 1
Format                           : AC-3
Format/Info                      : Audio Coding 3
Mode extension                   : CM (complete main)
Codec ID                         : 2000
Duration                         : 1h 45mn
Bit rate mode                    : Constant
Bit rate                         : 256 Kbps
Channel(s)                       : 2 channels
Channel positions                : Front: L R
Sampling rate                    : 44.1 KHz
Bit depth                        : 16 bits
Compression mode                 : Lossy
Stream size                      : 194 MiB (14%)
Alignment                        : Aligned on interleaves
Interleave, duration             : 70 ms (1.74 video frames)
Interleave, preload duration     : 208 ms



IMDB :  http://www.imdb.com/title/tt1253864/



Subtitles:

None

Source :
 
Video..........:russian dvd5
Audio..........:from previous releases



SCR0N is looking for silver supplier,cammers,syncers,Audio and anymore stuff.....

If yall got anything to offer...holler us at scron@hushmail.com




SCREEN SHOTS :


[IMG]http://i.imgur.com/SIZPG.jpg[/IMG]
[IMG]http://i.imgur.com/irFzC.jpg[/IMG]
[IMG]http://i.imgur.com/DyJ0f.jpg[/IMG]
[IMG]http://i.imgur.com/jsvIw.jpg[/IMG]
[IMG]http://i.imgur.com/7m8bb.jpg[/IMG]
[IMG]http://i.imgur.com/JvxyO.jpg[/IMG]
[IMG]http://i.imgur.com/V8FWf.jpg[/IMG]
[IMG]http://i.imgur.com/qiYtX.jpg[/IMG]
[IMG]http://i.imgur.com/BRgv8.jpg[/IMG]